<?xml version="1.0" standalone="no"?>
<!DOCTYPE svg PUBLIC "-//W3C//DTD SVG 20010904//EN"
 "http://www.w3.org/TR/2001/REC-SVG-20010904/DTD/svg10.dtd">
<svg version="1.0" xmlns="http://www.w3.org/2000/svg"
 width="478.000000pt" height="30.000000pt" viewBox="0 0 478.000000 30.000000"
 preserveAspectRatio="xMidYMid meet">

<g transform="translate(0.000000,30.000000) scale(0.100000,-0.100000)"
fill="#000000" stroke="none">
<path d="M852 271 c-9 -5 -12 -38 -10 -117 3 -101 4 -109 23 -109 17 0 20 8
23 48 l3 47 45 0 44 0 0 -51 c0 -47 2 -50 23 -47 21 3 22 8 25 107 3 105 -5
135 -34 124 -9 -3 -14 -20 -14 -49 l0 -44 -45 0 -45 0 0 39 c0 41 -17 65 -38
52z"/>
<path d="M1728 260 c-21 -16 -28 -30 -28 -55 0 -39 13 -51 71 -68 33 -10 45
-18 47 -35 3 -19 -1 -22 -28 -22 -17 0 -41 5 -52 11 -16 8 -24 8 -35 -4 -25
-25 9 -47 73 -47 63 0 94 23 94 68 0 36 -23 57 -77 71 -32 9 -43 17 -43 32 0
27 26 35 67 20 26 -10 38 -10 46 -2 18 18 -15 43 -64 48 -35 4 -50 0 -71 -17z"/>
<path d="M2338 263 c-35 -22 -48 -53 -48 -113 0 -38 6 -55 26 -79 22 -27 32
-31 74 -31 37 0 56 6 77 24 22 19 25 27 16 37 -12 12 -17 10 -61 -15 -48 -28
-85 5 -85 76 0 69 50 98 100 58 28 -22 43 -18 43 10 0 23 -47 50 -87 50 -15 0
-40 -8 -55 -17z"/>
<path d="M617 264 c-14 -15 8 -34 39 -34 l34 0 0 -95 c0 -88 1 -95 20 -95 19
0 20 7 20 94 l0 95 37 3 c27 2 39 8 41 21 3 15 -6 17 -91 17 -51 0 -96 -3
-100 -6z"/>
<path d="M1080 155 c0 -108 1 -115 20 -115 19 0 20 7 20 115 0 108 -1 115 -20
115 -19 0 -20 -7 -20 -115z"/>
<path d="M1180 155 c0 -108 1 -115 20 -115 17 0 20 7 20 46 0 41 2 45 22 42
15 -2 31 -18 46 -46 15 -27 30 -42 43 -42 24 0 24 21 -1 62 -16 27 -17 34 -6
48 8 8 15 24 16 35 7 68 -12 85 -96 85 l-64 0 0 -115z m114 60 c10 -28 -5 -45
-40 -45 -31 0 -34 3 -34 30 0 27 3 30 34 30 21 0 36 -6 40 -15z"/>
<path d="M1390 154 l0 -116 65 4 c55 3 70 8 93 31 23 24 27 35 27 88 0 54 -3
63 -28 85 -23 20 -39 24 -93 24 l-64 0 0 -116z m124 60 c21 -21 21 -92 -1
-116 -9 -10 -30 -18 -50 -18 l-33 0 0 75 0 75 34 0 c19 0 42 -7 50 -16z"/>
<path d="M1912 158 c3 -105 4 -113 23 -113 16 0 21 8 23 43 3 42 3 42 43 42
48 0 79 27 79 70 0 50 -30 70 -105 70 l-66 0 3 -112z m117 48 c4 -22 -23 -46
-51 -46 -14 0 -18 8 -18 36 0 34 1 35 32 32 23 -2 34 -9 37 -22z"/>
<path d="M2141 251 c-17 -32 -71 -181 -71 -197 0 -22 38 -17 45 6 5 16 15 20
55 20 39 0 49 -3 53 -20 6 -22 35 -27 42 -7 3 7 -12 57 -33 112 -31 78 -44
101 -60 103 -13 2 -25 -5 -31 -17z m45 -99 c6 -30 4 -32 -20 -32 -29 0 -31 4
-15 49 13 37 26 31 35 -17z"/>
<path d="M2522 158 l3 -113 75 0 c63 0 75 3 78 18 3 14 -5 17 -52 17 -56 0
-56 0 -56 30 0 29 1 30 51 30 43 0 50 3 47 18 -2 13 -15 18 -51 20 -42 3 -47
6 -47 27 0 22 5 24 52 27 41 2 54 7 56 21 3 15 -6 17 -78 17 l-81 0 3 -112z"/>
<path d="M3863 258 c-20 -5 -35 -18 -43 -37 -18 -44 0 -68 66 -87 59 -17 74
-34 53 -60 -11 -13 -25 -15 -71 -10 -61 6 -79 -7 -32 -24 49 -19 115 -8 136
24 26 38 -3 78 -68 95 -23 6 -48 18 -55 27 -11 14 -10 19 11 36 19 16 33 18
68 13 34 -5 43 -4 40 7 -6 17 -65 26 -105 16z"/>
<path d="M2862 148 c4 -140 22 -152 26 -18 l3 95 39 -95 c27 -68 43 -95 55
-95 12 0 28 27 55 95 l39 95 3 -93 c4 -130 22 -118 26 18 3 110 3 110 -21 110
-21 0 -29 -12 -61 -95 -21 -52 -39 -95 -41 -95 -2 0 -20 43 -40 95 -33 84 -40
95 -61 95 l-25 0 3 -112z"/>
<path d="M3224 223 c-9 -21 -29 -69 -45 -106 -16 -38 -26 -73 -23 -78 10 -17
22 -9 33 21 9 28 13 30 65 30 52 0 57 -2 71 -30 16 -30 35 -40 35 -17 -1 6
-20 57 -43 112 -49 115 -68 129 -93 68z m55 -56 l20 -47 -43 0 -44 0 21 50
c11 27 22 48 23 47 2 -1 12 -24 23 -50z"/>
<path d="M3362 248 c3 -7 19 -14 36 -16 l31 -3 3 -96 c2 -66 7 -98 16 -101 9
-3 12 21 12 97 l0 100 37 3 c20 2 38 9 41 16 3 9 -19 12 -88 12 -69 0 -91 -3
-88 -12z"/>
<path d="M3582 148 c2 -67 7 -113 13 -113 6 0 11 21 13 48 l3 47 59 0 59 0 3
-47 c2 -26 9 -48 16 -51 9 -3 12 24 12 113 0 89 -3 116 -12 113 -7 -3 -14 -25
-16 -51 l-3 -47 -60 0 -59 0 0 50 c0 38 -4 50 -15 50 -13 0 -15 -17 -13 -112z"/>
<path d="M4112 148 c2 -67 7 -113 13 -113 6 0 11 21 13 48 l3 47 59 0 59 0 3
-47 c2 -26 9 -48 16 -51 9 -3 12 24 12 113 0 89 -3 116 -12 113 -7 -3 -14 -25
-16 -51 l-3 -47 -60 0 -59 0 0 50 c0 38 -4 50 -15 50 -13 0 -15 -17 -13 -112z"/>
<path d="M4357 253 c-11 -10 -8 -114 3 -155 17 -61 77 -86 133 -56 40 21 46
40 47 131 0 71 -3 87 -15 87 -12 0 -15 -16 -15 -84 0 -100 -12 -119 -69 -114
-47 4 -61 32 -61 126 0 66 -6 83 -23 65z"/>
<path d="M4604 247 c-2 -7 -3 -58 -2 -113 l3 -99 49 -3 c59 -4 89 3 110 24 22
21 20 53 -4 79 -18 20 -19 23 -5 35 21 17 19 46 -5 70 -16 16 -33 20 -80 20
-41 0 -62 -4 -66 -13z m132 -39 c9 -29 -18 -48 -68 -48 -37 0 -38 1 -38 35 l0
35 49 0 c42 0 51 -3 57 -22z m5 -84 c13 -8 11 -38 -3 -52 -7 -7 -34 -12 -60
-12 -48 0 -48 0 -48 33 0 19 3 37 8 41 7 8 86 1 103 -10z"/>
</g>
</svg>
